<svg width="24" height="24" viewBox="0 0 24 24" fill="none" xmlns="http://www.w3.org/2000/svg">
<path d="M13.6907 6.27083C12.9636 5.6483 11.8453 6.16808 11.8453 7.12738V10.1186L7.34537 6.27083C6.61827 5.64905 5.5 6.16883 5.5 7.12813V16.8734C5.5 17.532 6.02778 17.9835 6.59363 18H6.65858C6.89597 17.9925 7.13634 17.9085 7.34537 17.73L11.8453 13.8823V16.8727C11.8453 17.832 12.9636 18.351 13.6907 17.7292L19.2223 12.9995C19.3663 12.8762 19.482 12.7231 19.5614 12.5505C19.6407 12.3779 19.6818 12.1901 19.6818 12C19.6818 11.8099 19.6407 11.6221 19.5614 11.4496C19.482 11.277 19.3663 11.1238 19.2223 11.0006L13.6907 6.27083Z" fill="#101828"/>
</svg>
